<svg xmlns="http://www.w3.org/2000/svg" viewBox="0 0 118.71 102.14"><defs><style>.cls-1{fill:#608e6f;}.cls-2{fill:#80a875;}.cls-3,.cls-5,.cls-6,.cls-7{fill:none;}.cls-3{stroke:#80a875;stroke-width:0.42px;}.cls-3,.cls-5,.cls-7{stroke-miterlimit:10;}.cls-4{fill:#3c2415;}.cls-5{stroke:#608e6f;stroke-width:0.75px;}.cls-6{stroke:#265f38;stroke-linecap:round;stroke-linejoin:round;}.cls-7{stroke:#c2e0ca;}.cls-8{fill:#c2e0ca;}</style></defs><title>Asset 1</title><g id="Layer_2" data-name="Layer 2"><g id="Layer_2-2" data-name="Layer 2"><path class="cls-1" d="M30,88.85a91.88,91.88,0,0,1,13.76.48c5.06.6,3.6,1.23,7.54,1.58,5.44.48,11.66-.41,20.55-.52,13.11-.16,29.21,1.43,30,2.79,1.49,2.67-55,6.85-73.13,4.64-7.69-.94-7.2-2.88-6.59-5.31C22.39,91.09,22.85,89.27,30,88.85Z"/><path class="cls-2" d="M26.78,92.53c5.48-1,17.23-.82,26.95-.7C69,92,88,92.86,87.66,93.65S70.88,94.1,66,95.46c-7,2,19.17,4.72,13.39,6.09-5.39,1.27-34.21.3-53.53-1.12C13.14,99.49-1.93,97.87.2,96.93c1.89-.83,15.44-.37,21.87-1.74C26.84,94.18,22,93.36,26.78,92.53Z"/><path class="cls-3" d="M33.92,88a119.18,119.18,0,0,1,12.13.72c1.72.21,3.26.44,4.56.7a32,32,0,0,0,9.28.53c16.68-1.07,43.21-.26,46.86,2.65,3.14,2.51-10.44,5.22-28.27,5.6"/><path class="cls-2" d="M87.88,99.08c-1.18-.07-5.87.66-4.52,1.06s9.25.41,10.68,0c.68-.18.07-.5-1.13-.59s-2.63.12-3.77,0C87.82,99.48,88.64,99.12,87.88,99.08Z"/><path class="cls-2" d="M15.5,100.55c3,.28,4.91.46,4.65.59-.5.25-9.49.41-12.06-.2-1.12-.26-1-.68.25-.8A51.1,51.1,0,0,1,15.5,100.55Z"/><rect class="cls-4" x="43.46" y="57.63" width="12.5" height="38.2"/><path class="cls-4" d="M43.79,93.63l-9.3,2.76H45Z"/><path class="cls-4" d="M55.36,93.62l9.3,2.76H54.16Z"/><path class="cls-4" d="M51.31,93.53c.46.14,5.25,3.68,5.25,3.68l-10.41-1Z"/><path class="cls-4" d="M44.21,93.47c.46.14,5.25,3.68,5.25,3.68l-10.41-1Z"/><path class="cls-4" d="M43.9,94c.46.14,5.09.92,5.09.92L38.74,96.67Z"/><path class="cls-5" d="M29.15,38.79a41,41,0,0,0-10.59-4.11,15.11,15.11,0,0,0-11,1.65C3.2,39.14,1.24,44.74,1.65,49.91s2.81,10,5.6,14.33c2,3.09,4.66,6.32,8.32,6.49"/><path class="cls-1" d="M24.08,2.26c-4.87,1.55-8.44,4.91-8.34,10.31.16,8.61,5.33,17.06,12.63,21.63a21.66,21.66,0,0,0,12.47,3.41c3.78-.19,9-2.9,12.72-1.64a3.37,3.37,0,0,1,1.5,1c2.85,3.19-2.26,8.67.75,14,2.79,4.88,11.19,7.24,17,4.52,7.43-3.49,7.75-14,7.91-19.22a34.39,34.39,0,0,0-7.54-22.5C63.79,2.25,47.64-1.39,33.52.46A54.45,54.45,0,0,0,24.08,2.26Z"/><path class="cls-1" d="M23.84,41.42c-3.59-.21-8.9-.51-12.57,2.77C5.12,49.69,7,62.31,10.39,63.41c2.59.84,4.16-5.58,10.69-7.29,7.8-2,13.55,5.08,16.46,2.64,2.59-2.18,1-10.42-3.9-14.45C30.58,41.81,27,41.61,23.84,41.42Z"/><path class="cls-5" d="M63.61,16.42a18.16,18.16,0,0,1,11.87-6C88.14,9.33,89.56,26.33,88.09,35.17"/><path class="cls-5" d="M91.54,38.52a27,27,0,0,1,1.68-7.77,9.1,9.1,0,0,1,5.58-5.34,16.08,16.08,0,0,1,15.94,4.7c4.77,5.31,4.21,12.78,1.66,19a26.65,26.65,0,0,1-7.72,10.78,10.79,10.79,0,0,1-11.42,1.7"/><path class="cls-1" d="M100.5,59.37c2.45,1.29,9-4.32,12-11.26,1.19-2.8,4.06-9.6.21-15.24a12.78,12.78,0,0,0-11.18-5.37c-.36,0-7.65.57-10.17,6.32-.16.36-1.89,4.46.07,7.8,1.56,2.67,3.85,2.08,6,4.32C101.85,50.41,98,58.05,100.5,59.37Z"/><path class="cls-2" d="M26.36,11A27.4,27.4,0,0,1,43.18,5.13,48.91,48.91,0,0,1,62.25,9c3.38,1.46,6.79,3.25,9.32,6a12,12,0,0,1,3.07,6.61c.41,3.64-5.58,8.54-.83,11.18,5.34,3,10.72-2.68,16.09-2.86a17.08,17.08,0,0,1,12.93,5.36c2.7,2.92,5.37,6.84,4.83,11-.41,3.14-2.63,5.55-4,8.31-1.43,3-1.33,6.17-1.88,9.33-1.15,6.61-6.62,10.25-12.49,12.46-7.08,2.68-15.15,3-22.19,0-.45-.19-.89-.4-1.33-.63-7.86-4-6.88-8.88-12.3-10-5-1.07-8.82,3.09-12.53,5.69a25.57,25.57,0,0,1-20.16,4.24c-6.23-1.41-11.24-5.64-12.66-12-.84-3.79-.08-8.67,4.08-10.05,3.91-1.29,8.1-.28,12-1.84C27.44,50.38,31,48,31,44.11c0-3.33-3.14-5.36-5.8-6.69-4.49-2.23-8-7-8-12.16C17.16,19.29,21.92,14.36,26.36,11Z"/><path class="cls-6" d="M47.8,51a33.28,33.28,0,0,1,16.52-6.67c7.54-.84,15.5,1.09,21.34,5.93S95,62.89,93.82,70.39"/><path class="cls-6" d="M25.76,66.54a39.46,39.46,0,0,0,19.9-27.21c1.1-6,.4-13-4.38-16.73"/><path class="cls-7" d="M57.76,24.13c1.4,3,.6,7.46,3.37,9.74a5.16,5.16,0,0,0,6.67-.54c2.52-2.49,2.19-6.39.61-9.29-1.71-3.15-4.95-5.29-8.26-6.48a18.6,18.6,0,0,0-6.65-1.13,6,6,0,0,0-2.65.54,2.82,2.82,0,0,0-1.51,2,1.29,1.29,0,0,0,.8,1.41,2.1,2.1,0,0,0,.79,0,6.79,6.79,0,0,1,5.71,2.08A6.24,6.24,0,0,1,57.76,24.13Z"/><path class="cls-7" d="M92.58,39.37a6.71,6.71,0,0,1,2.54,3.25c.47,1.43.16,3.1,1.17,4.34,1.45,1.8,4.24,1,5.48-.63a6.51,6.51,0,0,0,.81-6.43,6.7,6.7,0,0,0-3.35-3,20.65,20.65,0,0,0-6.18-1.61,10.84,10.84,0,0,0-3.89-.15,1.91,1.91,0,0,0-.88.43c-.62.59-.25,1.59.32,2.07,1.07.9,2.65.87,3.82,1.63Z"/><path class="cls-8" d="M24.28,28a18.29,18.29,0,0,1,8.11-16.88l1.06-.66,1.12-.57a17.24,17.24,0,0,1,2.31-.95A19.91,19.91,0,0,1,41.76,8,18.43,18.43,0,0,1,51.1,10.1h0a.07.07,0,0,1,0,.1.09.09,0,0,1-.09,0,22.28,22.28,0,0,0-9.17-1,21,21,0,0,0-4.51,1,22.3,22.3,0,0,0-2.12.93l-1,.54-1,.63a20.7,20.7,0,0,0-1.86,1.37,21.15,21.15,0,0,0-1.66,1.62A18.51,18.51,0,0,0,27,19.11,21.43,21.43,0,0,0,24.44,28a.08.08,0,0,1-.09.07.07.07,0,0,1-.07-.07Z"/><path class="cls-8" d="M100.67,61.84a21.88,21.88,0,0,1-6.36,8.68,22.29,22.29,0,0,1-4.66,3,25,25,0,0,1-5.28,1.76,23.94,23.94,0,0,1-11-.46,25,25,0,0,1-9.51-5h0a.08.08,0,0,1,0-.11s.06,0,.1,0a31.12,31.12,0,0,0,9.68,4,25.54,25.54,0,0,0,10.41.14,23.85,23.85,0,0,0,9.51-4.22,26.17,26.17,0,0,0,7-7.77.07.07,0,1,1,.13.07Z"/><path class="cls-8" d="M27.13,73.31a14.49,14.49,0,0,1-7-.63A13.49,13.49,0,0,1,14,68.56a10.25,10.25,0,0,1-1.85-3.39,7.89,7.89,0,0,1-.2-4,8.35,8.35,0,0,1,1.66-3.39,10.82,10.82,0,0,1,2.71-2.32h0a.07.07,0,0,1,.1,0,.09.09,0,0,1,0,.1,10.27,10.27,0,0,0-3.26,5.76,8.11,8.11,0,0,0,2,6.19,14.28,14.28,0,0,0,5.37,4,19.79,19.79,0,0,0,6.56,1.6.09.09,0,0,1,.07.09.1.1,0,0,1-.07.07Z"/></g></g></svg>