<svg xmlns="http://www.w3.org/2000/svg" xmlns:xlink="http://www.w3.org/1999/xlink" viewBox="0 0 84.99 144.79"><defs><style>.cls-1,.cls-9{fill:#ebc432;}.cls-1,.cls-11,.cls-12,.cls-13,.cls-14,.cls-15,.cls-3,.cls-5{stroke:#203c1b;}.cls-1,.cls-11,.cls-12,.cls-13,.cls-14,.cls-15,.cls-16,.cls-3,.cls-5,.cls-6,.cls-7{stroke-linecap:round;stroke-linejoin:round;}.cls-2{isolation:isolate;}.cls-3{fill:#f4f5f5;}.cls-4{fill:#ccb5d3;opacity:0.56;}.cls-4,.cls-8{mix-blend-mode:darken;}.cls-5{fill:#d978b0;}.cls-11,.cls-16,.cls-6,.cls-7{fill:none;}.cls-16,.cls-6,.cls-7{stroke:#6c1449;}.cls-6{stroke-width:1.1px;}.cls-8{fill:#c05492;opacity:0.46;}.cls-10{clip-path:url(#clip-path);}.cls-12{fill:#f9f9fa;}.cls-13{fill:#efb2d1;}.cls-14,.cls-15{fill:#eec628;}.cls-14{stroke-width:0.89px;}.cls-16{stroke-width:1px;}.cls-17{fill:#f38ab8;opacity:0.12;}.cls-18{fill:#6c1449;opacity:0.11;}</style><clipPath id="clip-path"><path class="cls-1" d="M68.45,112.33c0,.46.48.22.51.68-5.09,6.18-12.27,9.34-17,7.91a7.57,7.57,0,0,1-1.75-.75,10.85,10.85,0,0,1-4.35-5.29,23.5,23.5,0,0,0-13.31,12.31c-1,2.3-2.65,5.95-1.25,9.4,1.76,4.31,7.66,6.84,15,7.49a49.81,49.81,0,0,0,26.44-5.23c3.84-2,7.18-3.82,8.15-7.25C82.35,126.35,77.68,119.31,68.45,112.33Z"/></clipPath></defs><title>Asset 2</title><g class="cls-2"><g id="Layer_2" data-name="Layer 2"><g id="Layer_2-2" data-name="Layer 2"><path class="cls-3" d="M83,75.85a6.15,6.15,0,0,0-7.61-3.66c0-.29,0-.6,0-.93a5.15,5.15,0,0,1-2.33-1.14c-2-1.84-1.31-4.76-1.13-11.7a81.63,81.63,0,0,0-.18-10.8c-.3-2.35-.87-4.09-1.94-4.45C68,42.55,66.36,46.73,64,46.34c-1.24-.2-2.57-1.67-3.59-3.81,0,.07-5.35,1.78-5.87,1.92A51.14,51.14,0,0,1,48,45.74a58.58,58.58,0,0,1-13.3-.08c-3.54-.37-7.13-.53-10.57-1.51-.28-.07-1.18,2.56-1.7,4.16-.2.6-.34,1.06-.38,1.18-3.55,10.36-4.67,22.34-.58,32.72,3.78,9.64,13.44,15.4,23.5,16.24h.17l.49,0c8,.53,16.13-1.67,21.55-6.42a17.75,17.75,0,0,0,1.7-1.66,21.36,21.36,0,0,0,4.64-8.66A5.71,5.71,0,0,0,83,75.85Z"/><path class="cls-4" d="M71.77,47.62s-1.67.66-1.8.72c-2,.88-4,2.65-6.21,2.89-2,.21-3-1.12-3.86-2.65,0,0-1.56.28-1.71.3l-2,.27c-3.09.42-6.17,1-9.27,1.41a40.13,40.13,0,0,1-5.12.59,43,43,0,0,1-15.23-1.33,30.85,30.85,0,0,1-4.16-1.51c.52-1.6,1.42-4.23,1.7-4.16,3.44,1,7,1.14,10.57,1.51a58.58,58.58,0,0,0,13.3.08,51.14,51.14,0,0,0,6.59-1.29c.52-.14,5.87-1.85,5.87-1.92,1,2.14,2.35,3.61,3.59,3.81,2.34.39,3.94-3.79,5.81-3.17C70.9,43.53,71.47,45.27,71.77,47.62Z"/><path class="cls-5" d="M73.4,21.39c-.08-.51-4.21.07-4.66.17-6.28,1.39-9.9,7.13-9.93,13.2A14.32,14.32,0,0,0,59,37.2a18.05,18.05,0,0,0,1.57,5.08c0,.14-5.2,1.87-5.68,2A49.92,49.92,0,0,1,49,45.51a65.08,65.08,0,0,1-25.61-1.6,44.87,44.87,0,0,1-10.77-4.32A26.6,26.6,0,0,1,6.8,35.18c-.21-.21-.4-.42-.6-.63a21.88,21.88,0,0,1-5-9.56,25,25,0,0,1,0-11.94A20.16,20.16,0,0,1,5,5.28l.17-.21a12.2,12.2,0,0,1,4-3.2,15.43,15.43,0,0,1,11.28-.59C28.27,3.68,32.87,10.46,37.17,17c.29.44,1.42,2.38,1.42,2.38,5.16-4.94,12.29-9.11,19.55-9.55a16.18,16.18,0,0,1,9.47,2.14,13,13,0,0,1,5.7,9C73.35,21.06,73.37,21.22,73.4,21.39Z"/><path class="cls-5" d="M38.64,19.47c1.59,3,3.14,5.1,5.71,5.28,3.2.23,6.08-2.67,8.15-5.43"/><path class="cls-5" d="M82.87,62.55a16.64,16.64,0,0,1-1.28,5.67,5.2,5.2,0,0,1-2.12,2.33,5.79,5.79,0,0,1-3.93.46,5.15,5.15,0,0,1-2.33-1.14c-2-1.84-1.31-4.76-1.13-11.7.16-6.16.37-14.41-2.12-15.25-1.87-.62-3.47,3.56-5.81,3.17-1.24-.2-2.57-1.67-3.59-3.81A18.15,18.15,0,0,1,59,36.74a15.75,15.75,0,0,1,.69-7.54,11.63,11.63,0,0,1,2-3.41,13.22,13.22,0,0,1,11.81-4.4,8.78,8.78,0,0,1,1.24.25A13.89,13.89,0,0,1,82,27.15C84.51,30.42,85.64,34,82.87,62.55Z"/><path class="cls-6" d="M23.19,59.63a3.72,3.72,0,0,1,3.67-3.17A3.77,3.77,0,0,1,30,61.12"/><path class="cls-6" d="M44.63,62.18a3.92,3.92,0,0,1,7.83.18"/><path class="cls-7" d="M40.39,72a3.57,3.57,0,0,1-7.13-.3"/><path class="cls-8" d="M60.56,42.28c0,.14-5.2,1.87-5.68,2A49.92,49.92,0,0,1,49,45.51a65.08,65.08,0,0,1-25.61-1.6,44.87,44.87,0,0,1-10.77-4.32A26.6,26.6,0,0,1,6.8,35.18c-.21-.21-.4-.42-.6-.63a21.88,21.88,0,0,1-5-9.56,4.84,4.84,0,0,1,1-.59C7.13,22.16,11.36,30.92,24,35.26c9.84,3.38,18.73,2,27.62.68,2.41-.36,4.78-.73,7.15-1.18A14.32,14.32,0,0,0,59,37.2,18.05,18.05,0,0,0,60.56,42.28Z"/><path class="cls-9" d="M68.45,112.33c0,.46.48.22.51.68-5.09,6.18-12.27,9.34-17,7.91a7.57,7.57,0,0,1-1.75-.75,10.85,10.85,0,0,1-4.35-5.29,23.5,23.5,0,0,0-13.31,12.31c-1,2.3-2.65,5.95-1.25,9.4,1.76,4.31,7.66,6.84,15,7.49a49.81,49.81,0,0,0,26.44-5.23c3.84-2,7.18-3.82,8.15-7.25C82.35,126.35,77.68,119.31,68.45,112.33Z"/><g class="cls-10"><path class="cls-4" d="M64.91,117.42c3.63,3.13,8.31,7.29,9.54,12.12.82,3.21-.41,6.41-1.73,9.31,0,0,8.87-3.69,8.42-8.83a20.85,20.85,0,0,0-9.59-15.62c-6.56-4.38-7.92-2-7.92-2l1.28,5"/></g><path class="cls-11" d="M68.45,112.33c0,.46.48.22.51.68-5.09,6.18-12.27,9.34-17,7.91a7.57,7.57,0,0,1-1.75-.75,10.85,10.85,0,0,1-4.35-5.29,23.5,23.5,0,0,0-13.31,12.31c-1,2.3-2.65,5.95-1.25,9.4,1.76,4.31,7.66,6.84,15,7.49a49.81,49.81,0,0,0,26.44-5.23c3.84-2,7.18-3.82,8.15-7.25C82.35,126.35,77.68,119.31,68.45,112.33Z"/><path class="cls-12" d="M68.51,112.67a13.92,13.92,0,0,1-5.3,5.88C59.5,121,54.92,122.14,52,121.26a7.57,7.57,0,0,1-1.75-.75,9.47,9.47,0,0,1-3.94-5c-.08-.22-.17-.46-.25-.7,0-1.06,0-2.12-.05-3.18q-.12-6.54-.22-13.08a34.08,34.08,0,0,0,12-1.3,25.45,25.45,0,0,0,9.6-5.12c.08,1.35.15,2.69.23,4v0C67.88,101.71,68.2,107.18,68.51,112.67Z"/><path class="cls-13" d="M50.61,136a2.68,2.68,0,0,1-2.47,2.32.87.87,0,0,1-.32-.06,2.34,2.34,0,0,1-1.06-2.64A2.52,2.52,0,0,1,49,133.54l.21,0A2.25,2.25,0,0,1,50.61,136Z"/><path class="cls-13" d="M53.4,125.65c-.15,1.41-1.71,2.64-2.79,2.26l0,0a2.36,2.36,0,0,1-1-2.62c.26-1.15,1.41-2.31,2.49-2l.18.07A2.31,2.31,0,0,1,53.4,125.65Z"/><path class="cls-14" d="M53,121.53c-.3.59-.59,1.22-.88,1.87Z"/><path class="cls-15" d="M47.52,144.29a.57.57,0,0,1,0-.13c.1-1.77.29-3.73.61-5.85"/><path class="cls-15" d="M49,133.54c.23-1.07.51-2.17.82-3.29.23-.81.46-1.6.71-2.36"/><path class="cls-16" d="M80,77.38a2.67,2.67,0,0,0-1.39-2.73c-1.15-.42-3,.55-3.32,2.54"/><path class="cls-4" d="M68.72,112.79c-.47,2.68-5.51,5.8-5.51,5.8v0L62.34,107s-.6.35-7.84,2.78a10.43,10.43,0,0,1-8.37-.46c-.08-4.36-.27-6.41-.34-10.77a43.58,43.58,0,0,0,12-1.3c6.73-1.76,9.51-4.7,9.51-4.7l.32,3.62v0C68.05,101.79,68.88,111.87,68.72,112.79Z"/><ellipse class="cls-17" cx="49.33" cy="71.39" rx="4.75" ry="2.77"/><ellipse class="cls-17" cx="25.78" cy="69.43" rx="4.75" ry="2.77"/><path class="cls-18" d="M51.36,67.81a.5.5,0,0,0,0,1A.5.5,0,0,0,51.36,67.81Z"/><path class="cls-18" d="M48.68,69.81a.45.45,0,0,0-.39.21.46.46,0,0,0-.44-.29.5.5,0,0,0,0,1,.46.46,0,0,0,.4-.21.44.44,0,0,0,.43.29A.5.5,0,0,0,48.68,69.81Z"/><path class="cls-18" d="M51.33,71.77a.5.5,0,0,0,0,1A.5.5,0,0,0,51.33,71.77Z"/><path class="cls-18" d="M46.84,71.92a.5.5,0,0,0,0,1A.5.5,0,0,0,46.84,71.92Z"/><path class="cls-18" d="M46.12,66.22a.5.5,0,0,0,0,1A.5.5,0,0,0,46.12,66.22Z"/><path class="cls-18" d="M43.93,68a.5.5,0,0,0,0,1A.5.5,0,0,0,43.93,68Z"/><path class="cls-18" d="M28.31,64.79a.5.5,0,0,0,0,1A.5.5,0,0,0,28.31,64.79Z"/><path class="cls-18" d="M24.91,66.75a.5.5,0,0,0,0,1A.5.5,0,0,0,24.91,66.75Z"/><path class="cls-18" d="M28.38,69.62a.5.5,0,0,0,0,1A.5.5,0,0,0,28.38,69.62Z"/><path class="cls-18" d="M23.21,69.54a.5.5,0,0,0,0,1A.5.5,0,0,0,23.21,69.54Z"/><path class="cls-18" d="M22.87,63.77a.5.5,0,0,0,0,1A.5.5,0,0,0,22.87,63.77Z"/><path class="cls-18" d="M26,67.09a.5.5,0,0,0,0,1A.5.5,0,0,0,26,67.09Z"/><path class="cls-18" d="M50.19,69.43a.5.5,0,0,0,0,1A.5.5,0,0,0,50.19,69.43Z"/><path class="cls-18" d="M44.38,69.32a.5.5,0,0,0,0,1A.5.5,0,0,0,44.38,69.32Z"/><path class="cls-8" d="M81.59,68.22a5.2,5.2,0,0,1-2.12,2.33,5.79,5.79,0,0,1-3.93.46,5.15,5.15,0,0,1-2.33-1.14c-2-1.84-1.31-4.76-1.13-11.7.16-6.16.37-14.41-2.12-15.25-1.87-.62-3.47,3.56-5.81,3.17-1.24-.2-2.57-1.67-3.59-3.81A18.15,18.15,0,0,1,59,36.74c.65.32,1.39.73,2.22,1.24.78,1.94,1.84,3.8,3.17,3.85,2.07.07,3-4.3,5.32-4.41s4.18,4,4.42,4.52c4.31,9.53-4.07,18.73.34,23.78a8.8,8.8,0,0,0,5.32,2.49A8.19,8.19,0,0,0,81.59,68.22Z"/></g></g></g></svg>